<mxfile host="app.diagrams.net" modified="2024-06-21T06:03:17.513Z" agent="Mozilla/5.0 (X11; Linux x86_64) AppleWebKit/537.36 (KHTML, like Gecko) Chrome/124.0.0.0 Safari/537.36" version="24.5.2" etag="eG-JxpnPhKmERZrLkF88" type="github">
  <diagram name="第 1 页" id="_55CB860vekRNitv7gH5">
    <mxGraphModel>
      <root>
        <mxCell id="0" />
        <mxCell id="1" parent="0" />
      </root>
    </mxGraphModel>
  </diagram>
</mxfile>
